<svg width="837" height="243" viewBox="0 0 837 243" fill="none" xmlns="http://www.w3.org/2000/svg">
<path d="M0 240.036H91.5M836.5 240.036L748.5 240.036M91.5 240.036C91.8333 211.202 109.6 153.536 178 153.536M91.5 240.036H178M178 153.536V240.036M178 153.536V6.03554M178 240.036H302.5M216 240.036C216.333 211.202 234.1 153.536 302.5 153.536V240.036M302.5 240.036H361M361 240.036V6.03554L315 52.0355M361 240.036H414M414 240.036V153.536M572.5 240.035L500.5 240.036H414M414 6.03554V153.536M414 153.536L475.5 92.0355M414 153.536L500.5 240.036M572.5 240.035C516 240.035 517.7 6.03549 572.5 6.03549C627.3 6.03549 629 240.035 572.5 240.035ZM748.5 240.036L658 240.036L572.5 240.035M658 240.036V153.536C688.167 153.536 748.5 170.836 748.5 240.036" stroke="white" stroke-width="5"/>
</svg>
